<mxfile host="65bd71144e">
    <diagram id="HIP3nbAZw_EuaXWnEj3U" name="Page-1">
        <mxGraphModel dx="1086" dy="743" grid="1" gridSize="10" guides="1" tooltips="1" connect="1" arrows="1" fold="1" page="1" pageScale="1" pageWidth="850" pageHeight="1100" math="0" shadow="0">
            <root>
                <mxCell id="0"/>
                <mxCell id="1" parent="0"/>
                <mxCell id="20" value="http://ics2o.mths.ca" style="swimlane;whiteSpace=wrap;html=1;" vertex="1" parent="1">
                    <mxGeometry x="34" y="290" width="782.5899999999999" height="480" as="geometry"/>
                </mxCell>
                <mxCell id="21" value="&lt;span style=&quot;font-size: 18px;&quot;&gt;Age restrictions with JS&lt;/span&gt;" style="rounded=0;whiteSpace=wrap;html=1;" vertex="1" parent="20">
                    <mxGeometry y="20" width="760" height="60" as="geometry"/>
                </mxCell>
                <mxCell id="22" value="&lt;span style=&quot;font-size: 21px;&quot;&gt;Enter your age&lt;/span&gt;" style="text;html=1;align=center;verticalAlign=middle;resizable=0;points=[];autosize=1;strokeColor=none;fillColor=none;fontSize=18;" vertex="1" parent="20">
                    <mxGeometry x="26" y="115" width="160" height="40" as="geometry"/>
                </mxCell>
                <mxCell id="24" value="" style="rounded=1;whiteSpace=wrap;html=1;fontSize=18;" vertex="1" parent="20">
                    <mxGeometry x="85" y="165" width="150" height="30" as="geometry"/>
                </mxCell>
                <mxCell id="25" value="age" style="text;html=1;align=center;verticalAlign=middle;resizable=0;points=[];autosize=1;strokeColor=none;fillColor=none;fontSize=18;" vertex="1" parent="20">
                    <mxGeometry x="35" y="155" width="50" height="40" as="geometry"/>
                </mxCell>
                <mxCell id="26" value="Determine" style="rounded=1;whiteSpace=wrap;html=1;fontSize=18;" vertex="1" parent="20">
                    <mxGeometry x="20" y="220" width="120" height="45" as="geometry"/>
                </mxCell>
                <mxCell id="27" value="You can watch a PG-13 movie alone" style="text;html=1;align=center;verticalAlign=middle;resizable=0;points=[];autosize=1;strokeColor=none;fillColor=none;fontSize=18;" vertex="1" parent="20">
                    <mxGeometry x="10" y="280" width="310" height="40" as="geometry"/>
                </mxCell>
            </root>
        </mxGraphModel>
    </diagram>
</mxfile>